<svg xmlns="http://www.w3.org/2000/svg" viewBox="0 0 111.74 60.08"><defs><style>.cls-1{fill:#808284;}.cls-2{fill:#fff;}.cls-3{fill:#faa71a;}.cls-4{fill:#ea9323;}</style></defs><g id="Layer_2" data-name="Layer 2"><g id="Layer_1-2" data-name="Layer 1"><path class="cls-1" d="M9.78,46.44a2.28,2.28,0,0,0-.47-.23L8.79,46l-.54-.15a1.25,1.25,0,0,1-.4-.2.36.36,0,0,1-.11-.14.41.41,0,0,1,0-.19v0a.57.57,0,0,1,.17-.42.79.79,0,0,1,.57-.17.89.89,0,0,1,.59.16.64.64,0,0,1,.21.48v.22h.94v-.23a1.44,1.44,0,0,0-.46-1A1.87,1.87,0,0,0,8.45,44a1.78,1.78,0,0,0-1.25.39,1.29,1.29,0,0,0-.42,1v.08a1.08,1.08,0,0,0,.22.73,1.48,1.48,0,0,0,.55.4l.34.12.34.11.55.15a1,1,0,0,1,.4.22.29.29,0,0,1,.12.15.4.4,0,0,1,0,.2v.08a.58.58,0,0,1-.2.46.9.9,0,0,1-.6.16A1,1,0,0,1,7.89,48a.78.78,0,0,1-.25-.56v-.27h-1v.31a1.55,1.55,0,0,0,.49,1.12A2.12,2.12,0,0,0,8.52,49a1.91,1.91,0,0,0,1.3-.4,1.39,1.39,0,0,0,.44-1.06v-.11a1.15,1.15,0,0,0-.13-.59A1.22,1.22,0,0,0,9.78,46.44Z"/><rect class="cls-1" x="11.45" y="44.03" width="0.94" height="4.87"/><path class="cls-1" d="M11.94,42.32a.65.65,0,0,0-.45.13.67.67,0,0,0-.16.51.73.73,0,0,0,.14.5.66.66,0,0,0,.47.14.62.62,0,0,0,.46-.15.68.68,0,0,0,.15-.49.67.67,0,0,0-.15-.51A.67.67,0,0,0,11.94,42.32Z"/><path class="cls-1" d="M18.24,43.92a1.28,1.28,0,0,0-.79.24,1.3,1.3,0,0,0-.45.62,1.24,1.24,0,0,0-.41-.62,1.46,1.46,0,0,0-1.62,0,1.32,1.32,0,0,0-.45.61L14.44,44h-.77v4.88h.93v-3a1.64,1.64,0,0,1,.2-.85.67.67,0,0,1,.63-.32A.6.6,0,0,1,16,45a1.39,1.39,0,0,1,.17.72v3.16h.93V45.78A1.42,1.42,0,0,1,17.3,45a.65.65,0,0,1,.61-.29.67.67,0,0,1,.61.27,1.44,1.44,0,0,1,.18.77v3.12h.93V45.59a1.92,1.92,0,0,0-.35-1.23A1.24,1.24,0,0,0,18.24,43.92Z"/><path class="cls-1" d="M23,44a1.37,1.37,0,0,0-.85.26,1.51,1.51,0,0,0-.47.66l-.1-.84h-.76v6.5h.89V48.2a1.43,1.43,0,0,0,.45.57A1.49,1.49,0,0,0,23,49a1.58,1.58,0,0,0,1.22-.51,2.29,2.29,0,0,0,.45-1.55v-.86a2.43,2.43,0,0,0-.44-1.59A1.51,1.51,0,0,0,23,44Zm.71,3a1.39,1.39,0,0,1-.27.93,1,1,0,0,1-.74.31.88.88,0,0,1-.74-.34,1.46,1.46,0,0,1-.25-.9v-.88A1.6,1.6,0,0,1,22,45.1a.9.9,0,0,1,.75-.35.88.88,0,0,1,.72.32,1.55,1.55,0,0,1,.27,1Z"/><rect class="cls-1" x="25.77" y="42.57" width="0.93" height="6.34"/><rect class="cls-1" x="27.98" y="44.03" width="0.94" height="4.87"/><path class="cls-1" d="M28.47,42.32a.67.67,0,0,0-.46.13.67.67,0,0,0-.15.51.73.73,0,0,0,.14.5.66.66,0,0,0,.47.14.64.64,0,0,0,.46-.15.68.68,0,0,0,.15-.49.67.67,0,0,0-.15-.51A.68.68,0,0,0,28.47,42.32Z"/><path class="cls-1" d="M30.67,42.64a1.54,1.54,0,0,0-.33,1.13V44h-.69v.85h.69v4h.9v-4h.93V44h-.93v-.18a1.76,1.76,0,0,1,0-.46.32.32,0,0,1,.16-.21.69.69,0,0,1,.17,0h.56v-.8h-.47A1.43,1.43,0,0,0,30.67,42.64Z"/><path class="cls-1" d="M35,47.33l-.07.37,0-.36-1-3.31h-1l1.61,4.76-.07.24a1.77,1.77,0,0,1-.19.39.56.56,0,0,1-.26.17l-.18,0h-.7v.85h.48a3.21,3.21,0,0,0,.67,0,.93.93,0,0,0,.44-.19,1.14,1.14,0,0,0,.31-.39,4.27,4.27,0,0,0,.28-.68l1.67-5.12v0H36Z"/><rect class="cls-1" x="40.16" y="42.57" width="0.93" height="6.34"/><rect class="cls-1" x="42.36" y="44.03" width="0.94" height="4.87"/><path class="cls-1" d="M42.85,42.32a.64.64,0,0,0-.45.13.67.67,0,0,0-.16.51.73.73,0,0,0,.14.5.66.66,0,0,0,.47.14.62.62,0,0,0,.46-.15.68.68,0,0,0,.15-.49.67.67,0,0,0-.15-.51A.67.67,0,0,0,42.85,42.32Z"/><path class="cls-1" d="M45.22,42.64a1.59,1.59,0,0,0-.32,1.13V44h-.7v.85h.7v4h.89v-4h.93V44H45.8v-.18a2.34,2.34,0,0,1,0-.46.33.33,0,0,1,.17-.21l.16,0h.57v-.8h-.48A1.43,1.43,0,0,0,45.22,42.64Z"/><path class="cls-1" d="M50.4,44.23a1.3,1.3,0,0,0-.48-.21,2.27,2.27,0,0,0-.61-.07,1.91,1.91,0,0,0-1.43.55,2.09,2.09,0,0,0-.52,1.5v1a2.08,2.08,0,0,0,.47,1.45,1.86,1.86,0,0,0,1.46.53,2.22,2.22,0,0,0,1-.21,1.45,1.45,0,0,0,.59-.56,2.27,2.27,0,0,0,.16-.39,3,3,0,0,0,.09-.43v-.07h-1v.11a1,1,0,0,1-.25.54.82.82,0,0,1-.63.2,1,1,0,0,1-.79-.3,1.31,1.31,0,0,1-.26-.87V46.8h2.93v-.88a2.4,2.4,0,0,0-.2-1A1.54,1.54,0,0,0,50.4,44.23ZM50.27,46h-2V46a1.31,1.31,0,0,1,.27-.9,1,1,0,0,1,.78-.31.89.89,0,0,1,.74.29,1.36,1.36,0,0,1,.22.83Z"/><polygon class="cls-1" points="51.16 42.46 51.64 42.46 51.64 43.75 51.93 43.75 51.93 42.46 52.4 42.46 52.4 42.21 51.16 42.21 51.16 42.46"/><polygon class="cls-1" points="53.85 42.21 53.4 43.21 53.39 43.21 52.94 42.21 52.65 42.21 52.65 43.75 52.91 43.75 52.91 42.73 52.92 42.73 53.3 43.56 53.49 43.56 53.87 42.73 53.88 42.73 53.88 43.75 54.14 43.75 54.14 42.21 53.85 42.21"/><path class="cls-2" d="M98,30.35c2.07,0,3.79-1.1,3.79-3.67v-4a6.2,6.2,0,0,0-3.62-1.11c-2.33,0-3.43,1.41-3.43,4.42S95.9,30.35,98,30.35m6.81-14.84c-.06,3-.06,7.59-.06,11,0,2.9,0,4.53,0,6.07h-3.08v-.64a3.12,3.12,0,0,1,.11-.82l-.18-.05c-.6.84-2,1.92-4.74,1.75S91.83,30.16,91.83,26c0-4.35,2-6.68,5.22-6.9a6,6,0,0,1,4.63,1.23l.18-.07a10.86,10.86,0,0,1-.09-1.67c0-.93,0-2.07,0-3.06,1,0,2.09,0,3.1,0m-34.64,6c-2.07,0-3.79,1.1-3.79,3.67v4A6.2,6.2,0,0,0,70,30.29c2.33,0,3.43-1.41,3.43-4.42s-1.13-4.4-3.26-4.4M63.4,35.58c.06-2.95.06-6.85.06-10.24,0-2.9,0-4.52,0-6.06H66.5v.63a3.07,3.07,0,0,1-.11.82l.18.06c.6-.84,2-1.92,4.74-1.75s5.11,2.62,5.11,6.81c0,4.35-2,6.68-5.22,6.9a6,6,0,0,1-4.63-1.23l-.18.07a12.19,12.19,0,0,1,.09,1.67c0,.92,0,1.33,0,2.32-1,0-2.09,0-3.1,0M84.08,21.64c-2.25,0-3.8,1.23-3.8,4.17s1.53,4.4,3.8,4.4,3.81-1.48,3.81-4.4-1.55-4.17-3.81-4.17m0,11.18c-4.08,0-6.69-2.66-6.69-7.1S80.15,19,84.08,19s6.75,2.28,6.75,6.74-2.66,7.1-6.75,7.1"/><path class="cls-3" d="M53.82,16.31c0-1,.56-1.71,1.87-1.71s2,.68,2,1.71S57,18,55.69,18s-1.87-.7-1.87-1.7m3.45,16.22c-.07-2.13-.07-3.84-.07-6.76,0-2.69,0-4.42.07-6.49H54.21c0,2,0,3.83,0,6.4s0,4.7,0,6.85Zm-21.78,0c0-1.27-.08-2.9-.08-4.32,0-1.61.06-3.19.06-5,0-2.75-1.61-4.14-4.16-4.14A5.32,5.32,0,0,0,27,20.87h-.19A4.73,4.73,0,0,0,23,19.06c-1,0-3.17.35-4.06,1.74l-.16-.07a7.39,7.39,0,0,0,.12-1.45h-3c.05,1.94.05,3.89.05,6.79s0,4.62-.05,6.46h2.94c-.05-1.36-.05-4.06-.05-7.53,0-2.38,1.4-3.34,3.13-3.34s2.41.9,2.41,2.68c0,4,0,6.33-.08,8.19h2.93c-.09-1.69-.06-3.6-.06-7.53,0-2.38,1.4-3.34,3.12-3.34s2.44.85,2.44,2.61c0,3.43,0,6.4-.09,8.26ZM6.68,21.64c2.27,0,3.82,1.25,3.82,4.17S9,30.21,6.68,30.21s-3.79-1.46-3.79-4.4,1.55-4.17,3.79-4.17m0,11.18c4.1,0,6.75-2.66,6.75-7.1S10.61,19,6.68,19,0,21.26,0,25.72s2.61,7.1,6.68,7.1m41.37-.29c0-2,.07-4.48.07-7.82,0-2.09-.8-3.1-2.91-3.1a3.32,3.32,0,0,0-3.65,3.61c0,4.41,0,6,0,7.31H38.52c0-1.82.07-3.51.07-6.46s0-5-.07-6.79h3.11a5.48,5.48,0,0,1-.11,1.43l.17.08c1.05-1.3,3.05-1.77,4.79-1.73,3,.08,4.65,1.54,4.65,5,0,2,0,2.88,0,4.13,0,1.56,0,2.95.09,4.35ZM84.11,60.08A24.08,24.08,0,0,1,60.29,35.81V5.36A5.31,5.31,0,0,1,65.55,0h37.12a5.31,5.31,0,0,1,5.25,5.36V35.81A24.07,24.07,0,0,1,84.11,60.08"/><path class="cls-2" d="M98,30.35c2.07,0,3.79-1.1,3.79-3.67v-4a6.2,6.2,0,0,0-3.62-1.11c-2.33,0-3.43,1.41-3.43,4.42S95.9,30.35,98,30.35m6.81-14.84c-.06,3-.06,7.59-.06,11,0,2.9,0,4.53,0,6.07h-3.08v-.64a3.12,3.12,0,0,1,.11-.82l-.18-.05c-.6.84-2,1.92-4.74,1.75S91.83,30.16,91.83,26c0-4.35,2-6.68,5.22-6.9a6,6,0,0,1,4.63,1.23l.18-.07a10.86,10.86,0,0,1-.09-1.67c0-.93,0-2.07,0-3.06,1,0,2.09,0,3.1,0m-34.64,6c-2.07,0-3.79,1.1-3.79,3.67v4A6.2,6.2,0,0,0,70,30.29c2.33,0,3.43-1.41,3.43-4.42s-1.13-4.4-3.26-4.4M63.4,35.58c.06-2.95.06-6.85.06-10.24,0-2.9,0-4.52,0-6.06H66.5v.63a3.07,3.07,0,0,1-.11.82l.18.06c.6-.84,2-1.92,4.74-1.75s5.11,2.62,5.11,6.81c0,4.35-2,6.68-5.22,6.9a6,6,0,0,1-4.63-1.23l-.18.07a12.19,12.19,0,0,1,.09,1.67c0,.92,0,1.33,0,2.32-1,0-2.09,0-3.1,0M84.08,21.64c-2.25,0-3.8,1.23-3.8,4.17s1.53,4.4,3.8,4.4,3.81-1.48,3.81-4.4-1.55-4.17-3.81-4.17m0,11.18c-4.08,0-6.69-2.66-6.69-7.1S80.15,19,84.08,19s6.75,2.28,6.75,6.74-2.66,7.1-6.75,7.1"/><path class="cls-4" d="M109.76,2.82c0-.12,0-.29,0-.49h.3c.14,0,.18,0,.24.29s.06.2.12.2h.38l-.1-.32a.33.33,0,0,0-.34-.27h0a.4.4,0,0,0,.35-.46c0-.31-.21-.47-.58-.47h-.76c0,.22,0,.44,0,.76s0,.55,0,.77Zm0-1.21H110c.19,0,.28,0,.28.22s-.08.22-.24.22h-.33Z"/><path class="cls-4" d="M110,3.76a1.71,1.71,0,1,0-1.7-1.7A1.71,1.71,0,0,0,110,3.76Zm0-3.08a1.38,1.38,0,1,1-1.37,1.38A1.38,1.38,0,0,1,110,.68Z"/></g></g></svg>